<?xml version="1.0" encoding="UTF-8"?>
<svg id="Layer_1" data-name="Layer 1" xmlns="http://www.w3.org/2000/svg" viewBox="0 0 28 25.15625">
  <defs>
    <style>
      .cls-1 {
        fill: #efbf20;
      }

      .cls-2 {
        fill: #f63;
      }

      .cls-3 {
        fill: #020202;
      }

      .cls-4 {
        fill: #9c3;
      }

      .cls-5 {
        fill: #c4e4fd;
      }

      .cls-6 {
        fill: #7b7a79;
      }

      .cls-7 {
        fill: #fc0;
      }

      .cls-8 {
        fill: #eee;
      }

      .cls-9 {
        fill: #72c1e8;
      }

      .cls-10 {
        fill: #feb59e;
      }

      .cls-11 {
        fill: #010101;
      }
    </style>
  </defs>
  <rect width="28" height="25.15625" rx=".254847" ry=".254847"/>
  <rect class="cls-8" x=".510417" y=".510417" width="26.979167" height="24.0625"/>
  <circle cx="7.889439" cy="11.494306" r="5.46875"/>
  <circle class="cls-7" cx="7.889439" cy="11.494306" r="5.104167"/>
  <polygon points="6.052083 .328125 27.635417 .328125 27.635417 3.609375 8.09375 3.609375 6.052083 .328125"/>
  <path d="M6.440491,16.552083l-1.380918-.525956s-.012421-1.036503,.260652-1.534185c.186796-.340439,.47083-.565692,.762665-.71476,.43078-.220036,1.033005-.216445,1.055725-.287599,.030423-.095298-.158829-.183048-.369252-.364548-.170623-.147168-.220481-.365011-.239387-.446218-.136207-.585073-.058413-2.111165-.058413-2.111165-.000107-.54303,.068849-.734761,.212101-.860554,.139572-.122566,.337191-.15896,.458778-.161824,.299913-.007064,.933955,.070437,1.19539,.104898,.411966,.054303,.778451,.114711,1.481538-.753444,.2162-.266962,.132331,1.249837-.105463,1.546751-.171628,.214295-.409876,.297185-.336536,.832075,.069009,.503309,.05657,1.046277-.061083,1.340244-.079592,.19887-.170529,.333207-.289784,.51209-.064973,.097461-.364138,.231616-.3783,.361695-.011549,.106126,.803539,.096437,1.053656,.191994,.272338,.104052,.640769,.441373,.796335,.700333,.081978,.136463,.148587,.332443,.181931,.640006,.046563,.429504,.041664,.974298,.041664,.974298l-.846493,.433002-1.929628,.372299-1.505178-.249432Z"/>
  <path d="M15.458333,6.347179v2.038237h5.46875c.201354,0,.364583,.163229,.364583,.364583v2.552084c0,.201354-.163229,.364583-.364583,.364583h-5.46875v1.09375h8.75c.201354,0,.364583,.163229,.364583,.364583v2.552084c0,.201354-.163229,.364583-.364583,.364583H15.458333v1.09375h5.104167c.201354,0,.364583,.163229,.364583,.364583v2.552084c0,.201354-.163229,.364583-.364583,.364583h-5.104167v1.822917h9.84375c.201354,0,.364583,.163229,.364583,.364583h0c0,.201354-.163229,.364584-.364583,.364584H14.729167V6.347179c0-.082435,.066827-.149263,.149263-.149263h.430642c.082435,0,.149263,.066827,.149263,.149263Z"/>
  <rect class="cls-3" x="3.710104" y="22.021541" width="8.020833" height=".729167" rx=".364583" ry=".364583"/>
  <path d="M3.869748,2.591905c-.336165,.000002-.672348-.002041-1.00849,.000776-.197976,.001659-.350534-.057241-.345151-.284479,.005002-.211137,.152618-.264276,.338214-.263744,.681411,.001952,1.362839,.002545,2.044244-.00033,.199888-.000843,.353504,.064981,.348066,.284251-.005006,.201869-.152898,.266575-.341139,.264571-.345212-.003674-.690491-.001047-1.035742-.001045Z"/>
  <polygon class="cls-9" points="6.726562 .510417 8.367188 3.208333 24.408854 3.208333 24.408854 .510417 6.726562 .510417"/>
  <path class="cls-1" d="M23.84375,14.947917v-1.093751c0-.201354-.163229-.364583-.364583-.364583H15.458333v1.822917h8.020834c.201354,0,.364583-.163229,.364583-.364583Z"/>
  <path class="cls-6" d="M9.652434,9.467616c.181793-.184272,.0509,.603831-.15282,.806355-.520756,.517697-.960488,.590613-.960488,.590613l-1.589137-.000474c-.182337,.006725-.228079-.130333-.228122-.306494-.00009-.3704-.003483-.501181,.119239-.586984,.119574-.083601,.434686-.067079,.580446-.060644,.242077,.010688,.719344,.117931,.961634,.121287,0,0,.6471,.066975,1.269249-.563659Z"/>
  <g>
    <path class="cls-9" d="M5.320602,15.90579s-.009195-.494378,.023076-.7546c.091751-.739908,.802675-1.258687,1.545362-1.274103,.76388-.015857,1.236975-.017099,2.000767,.000552,.545001,.012595,1.120996,.253882,1.384736,.750391-.230918,.326394-.582274,.487572-.92594,.646492-.567662,.274871-1.183421,.329474-1.808117,.30581-.133347,.008948-.309342-.012238-.30984,.178592-.000449,.173324,.167427,.200163,.302984,.209825,.905615,.064552,1.749439-.127555,2.521233-.616768,.118801-.075304,.220744-.19648,.385033-.175115,.005398,.254294,.023253,.726121,.023253,.726121,0,0-.819357,.375624-1.046892,.453787-.402803,.138372-1.10115,.227424-1.526818,.241699-.461578,.015479-1.345176-.151502-1.776116-.317589-.205225-.079095-.79272-.375093-.79272-.375093Z"/>
    <path class="cls-5" d="M10.439898,15.176864c.010955,.072834-.790932,.428276-1.069023,.538928-.408347,.16248-1.210374,.361765-1.725582,.335746-.215901-.007012-.523419-.014219-.519142-.303714,.004675-.269609,.739837-.157753,.990701-.176866,.68224-.05198,1.127321-.222994,1.788858-.590824,.111411-.061947,.368853-.352056,.368853-.352056,0,0,.103427,.137187,.165334,.548787Z"/>
    <path class="cls-5" d="M6.620478,15.438934c-.065381,.520193-.62685,.183116-.86428-.010189-.181575-.138534,.011057-.49489,.209999-.443605,.223061,.067085,.446644,.155084,.606036,.34214,.0273,.032038,.035334,.080494,.048246,.111654Z"/>
  </g>
  <g>
    <path class="cls-10" d="M9.113202,11.229167s.00345,.79072-.024365,1.042256c-.069666,.630007-.605088,1.063942-1.251655,1.033619-.596869-.027992-1.092868-.526939-1.106179-1.134631-.006081-.277613-.009161-.941244-.009161-.941244h2.39136Z"/>
    <path class="cls-11" d="M7.914133,12.780415c-.334827-.002438-.62326-.217024-.721793-.522513-.126701-.316746,.296043-.531097,.480704-.249655,.222488,.307196,.287357,.309504,.48997,.009695,.186297-.300533,.62725-.073213,.483131,.253772-.111694,.309252-.394622,.511159-.732013,.508701Z"/>
  </g>
  <rect class="cls-3" x="3.879022" y="18.960758" width="8.020833" height=".729167" rx=".364583" ry=".364583"/>
  <rect class="cls-3" x="3.879022" y="17.41265" width="8.020833" height=".729167" rx=".364583" ry=".364583"/>
  <path class="cls-2" d="M20.5625,10.572917v-1.093751c0-.201354-.163229-.364583-.364583-.364583h-4.739584v1.822917h4.739584c.201354,0,.364583-.163229,.364583-.364583Z"/>
  <path class="cls-4" d="M20.197917,19.322917v-1.093751c0-.201354-.163229-.364583-.364583-.364583h-4.375v1.822917h4.375c.201354,0,.364583-.163229,.364583-.364583Z"/>
  <rect class="cls-2" x="24.773438" y=".510417" width="2.697917" height="2.697917"/>
  <path d="M25.335516,1.053852l-.023172,.023766c-.055891,.057324-.054409,.149197,.003302,.204688l.624458,.60044-.612142,.588598c-.062276,.059881-.058308,.160702,.008481,.215503h0c.057894,.047503,.14251,.042805,.19479-.010815l.591162-.60632,.591162,.60632c.052279,.05362,.136896,.058318,.19479,.010815h0c.066789-.054802,.070757-.155623,.008481-.215504l-.612142-.588598,.624458-.60044c.057711-.055491,.059193-.147364,.003302-.204688l-.023172-.023766c-.056616-.058067-.149957-.058067-.206573,0l-.580307,.595187-.580307-.595187c-.056616-.058067-.149957-.058067-.206573,0Z"/>
</svg>